<?xml version="1.0" encoding="utf-8"?>
<!-- Generator: Adobe Illustrator 21.0.0, SVG Export Plug-In . SVG Version: 6.00 Build 0)  -->
<svg version="1.1" id="Layer_1" xmlns="http://www.w3.org/2000/svg" xmlns:xlink="http://www.w3.org/1999/xlink" x="0px" y="0px"
	 viewBox="0 0 2880 1800" style="enable-background:new 0 0 2880 1800;" xml:space="preserve">
<style type="text/css">
	.st0{fill:none;stroke:#0C0B01;stroke-miterlimit:10;}
	.st1{opacity:0.87;fill:#00DDFF;}
	.st2{fill:#8C8C8C;}
	.st3{fill:#FFFFFF;}
	.st4{fill:#4E2E7A;}
	.st5{fill:#F9B50F;}
	.st6{fill:#999999;}
	.st7{fill:#4FDB70;}
	.st8{fill:none;stroke:#F9B50F;stroke-width:5;stroke-miterlimit:10;}
	.st9{fill:#FC516A;}
	.st10{fill:#3A2227;}
	.st11{fill:none;stroke:#4E2E7A;stroke-width:3;stroke-miterlimit:10;}
	.st12{fill:#6B6B6B;}
	.st13{fill:#296D37;}
	.st14{fill:#AB8FD8;}
	.st15{fill:#FFE236;}
	.st16{fill:#998223;}
	.st17{fill:#8AE6E0;}
	.st18{fill:#D5F5F3;}
	.st19{fill:#BBF2DF;}
	.st20{fill:#D5F5EF;}
	.st21{opacity:0.1;fill:#00DDFF;}
	.st22{fill:#72CABB;}
	.st23{fill:none;stroke:#2F7E8C;stroke-width:3;stroke-miterlimit:10;}
	.st24{fill:none;stroke:#2F7E8C;stroke-width:4;stroke-miterlimit:10;}
	.st25{fill:#425460;}
	.st26{fill:#21272D;}
	.st27{fill:#DAA082;}
	.st28{fill:#FCCDB6;}
	.st29{fill:#684133;}
	.st30{fill:#B9B9B9;}
	.st31{fill:#DC999D;}
	.st32{fill:#CF8F8B;}
	.st33{fill:#F4F3F6;}
	.st34{fill:#EFF7F8;}
	.st35{fill:#879FC4;}
	.st36{fill:none;stroke:#60510D;stroke-miterlimit:10;}
	.st37{fill:#F9FB7D;}
	.st38{fill:#20200C;}
	.st39{fill:#E7B6BA;}
	.st40{fill:#8BE3F5;}
	.st41{fill:#008595;}
	.st42{fill:#F3EB75;}
	.st43{fill:#001002;}
	.st44{fill:#2E3E40;}
	.st45{fill:#000800;}
	.st46{fill:none;stroke:#757B67;stroke-width:2;stroke-miterlimit:10;}
	.st47{fill:#DFE6F7;}
	.st48{fill:#001001;}
	.st49{fill:#E0AFAF;}
	.st50{fill:#392C1C;}
</style>
<g>
	<polygon class="st15" points="2843.3,1498.2 39,1499.7 664.5,1223.9 2240.5,1225.4 	"/>
	<rect x="52.9" y="1501.6" class="st16" width="2799.1" height="80.9"/>
	<g>
		<polygon class="st17" points="555.8,441.3 2221.6,430.9 2221.6,476.7 2152.2,512 2102.7,512 2106.8,1252.9 2087,1252.9 
			2085.4,1182.2 1756.8,1184.3 1756.8,1252.9 1733.7,1252.9 1732.1,1184.3 1401.9,1184.3 1401.9,1263.3 1378.8,1263.3 
			1378.8,1182.2 1045.3,1182.2 1043.7,1263.3 1022.2,1263.3 1020.5,1178.1 703.6,1180.2 703.6,1255 675.5,1252.9 678.8,513 
			626.8,514.1 555,486 		"/>
		<rect x="700.3" y="513" class="st18" width="323.6" height="384.5"/>
		<rect x="1053.6" y="513" class="st18" width="323.6" height="384.5"/>
		<rect x="1403.5" y="513" class="st18" width="323.6" height="384.5"/>
		<rect x="1760.1" y="513" class="st18" width="323.6" height="384.5"/>
		<rect x="700.3" y="937" class="st19" width="323.6" height="207.8"/>
		<rect x="1053.6" y="937" class="st19" width="323.6" height="207.8"/>
		<rect x="1403.5" y="937" class="st19" width="323.6" height="207.8"/>
		<rect x="1760.1" y="937" class="st19" width="323.6" height="207.8"/>
		<polygon class="st20" points="555.8,437.2 554.2,487.1 2221.6,476.7 2221.6,430.9 		"/>
	</g>
	<rect x="447.4" y="244.1" class="st21" width="1529.2" height="860.2"/>
	<g>
		<path class="st22" d="M1758.1,1210.8c0,0,173.6-148.8,178.5-173.6c0,0-183.5-203.3-178.5-362c0,0,19.8-307.4,44.6-357
			c0,0,166.1,136.4,210.7,354.6c0,0,19.8,272.7,0,287.6c0,0,49.6-39.7,74.4-74.4c0,0,24.8-119,19.8-168.6c0,0-79.3-168.6-29.8-342.2
			c0,0,29.8-124,119-203.3c0,0,94.2,168.6,94.2,252.9c0,0-9.9,228.1-59.5,252.9l-69.4,54.5l-19.8,104.1l173.6-178.5l29.8-64.5
			c0,0,9.9-178.5,24.8-208.3c0,0,84.3-218.2,307.4-238c0,0,34.7,143.8-64.5,292.6c0,0-128.9,193.4-238,183.5
			c0,0-183.5,223.1-233.1,257.9h79.3c0,0,138.8-168.6,371.9-138.8l193.4,44.6c0,0-34.7,163.6-262.8,193.4c0,0-168.6,24.8-233.1-64.5
			l-163.6,9.9l-128.9,94.2l5,24.8c0,0,109.1-84.3,391.7,19.8c0,0,138.8,79.3,183.5,89.3c0,0-163.6,128.9-332.2,133.9
			c0,0-257.9-14.9-302.5-183.5v-24.8l-153.7,153.7C1790.3,1233.1,1750.6,1248,1758.1,1210.8z"/>
		<path class="st23" d="M1961.4,1012.5c0,0-104.1-183.5-89.3-357c0,0,14.9-138.8-44.6-238"/>
		<path class="st23" d="M1872.1,665.3c0,0-74.4-39.7-84.3-119"/>
		<path class="st23" d="M1772.9,650.5c22.9,110.5,114.3,168.8,114.3,168.8S2006,739.7,2001,665.3"/>
		<path class="st23" d="M2134.9,719.9c0,0-5-208.3,39.7-262.8c0,0,59.5-99.2,19.8-257.9"/>
		<path class="st23" d="M2194.4,427.3c0,0-66.4-14-74.4-128.9"/>
		<path class="st23" d="M2149.8,521.5c0,0-59.5-24.8-59.5-148.8"/>
		<path class="st23" d="M2144.5,546.3c0,0,44.9-74.4,129.2-84.3"/>
		<path class="st24" d="M2363,605.8c0,0,158.7-148.8,203.3-272.7c0,0,19.8-49.6,94.2-173.6"/>
		<path class="st24" d="M2544,385.2c0,0-49.6-59.5-32.2-166.1"/>
		<path class="st24" d="M2573.3,294.3c0,0-24.8-16.6,5.5-112.5"/>
		<line class="st24" x1="2491.5" y1="462" x2="2638.2" y2="375.3"/>
		<path class="st24" d="M2271.3,886c0,0,243,69.4,495.9-84.3"/>
		<line class="st24" x1="2479.6" y1="895.9" x2="2559.8" y2="750.4"/>
		<line class="st24" x1="2558.9" y1="881" x2="2618.4" y2="767"/>
		<line class="st24" x1="2680" y1="767" x2="2633.3" y2="861.2"/>
		<path class="st24" d="M2534.1,890.5c0,0-15.3,38.9,89.3,55"/>
		<path class="st24" d="M2583.7,881c0,0,49.6,14.9,114.1,14.9"/>
		<path class="st24" d="M1958.9,1059.6c0,0,29.8,79.3,168.6,99.2c138.8,19.8,143.8-39.7,322.3-14.9l98.6,19"/>
		<line class="st24" x1="2253.7" y1="1154" x2="2342.4" y2="1059.6"/>
		<line class="st24" x1="2363" y1="1137.8" x2="2405.2" y2="1089.3"/>
	</g>
	<g>
		<path class="st25" d="M1523.3,946.7h154c0,0,31.9,146.1,31.9,196.6c0,0,27.9,62.4,19.9,120.9c0,0,23.9,21.3,23.9,23.9v10.6
			c0,0,10.6,10.6,5.3,23.9l-53.1,8c0,0-23.9-13.3-18.6-26.6c0,0-26.6-85-29.2-116.9c0,0-45.2-122.2-47.8-148.8
			c0,0-8,119.6-5.3,138.2c0,0,45.2,79.7,18.6,116.9c0,0,26.6,15.9,0,45.2l-29.2-18.6l-29.2,5.3c0,0-13.3-8,2.7-23.9l-13.3-18.6
			c0,0-5.3-5.3-2.7-34.5v-66.4c0,0-37.2-164.7-29.2-196.6L1523.3,946.7z"/>
		<path class="st26" d="M1535.2,906.8c0,0-2.7,10.6-5.3,15.9c0,0-5.3,21.3-8,29.2c0,0,103.6,21.3,156.7,0c0,0-10.6-53.1-8-55.8
			L1535.2,906.8z"/>
		<path class="st27" d="M1705.2,827.1c5.3-15.9-2.7-29.2-2.7-29.2c-2.7-2.7-8-13.3-8-13.3l-2.7-34.5c-2.7-29.2-34.5-37.2-34.5-37.2
			l-39.8-10.6c-8,0-8-2.7-8-2.7v-15.9l-55.8,2.7v21.3l-5.3,5.3l-39.8,21.3c-37.2,18.6-31.9,55.8-31.9,55.8c0,10.6-5.3,26.6-5.3,26.6
			c-10.6,13.3-10.6,39.9-10.6,39.9c-10.6,31.9,4,43.8,4,43.8c26.6,15.9,93,13.3,93,13.3l15.9,2.7l23.9,5.3l9.3-9.3l8-2.7l10.6-5.3
			l10.6,5.3h15.9l5.3-2.7l13.3-10.6v-10.6l39.8-21.3C1721.1,845.7,1705.2,827.1,1705.2,827.1z M1500.7,864.3V859v-10.6
			c8-5.3,15.9-37.2,15.9-37.2s2.7-8,5.3,2.7c2.7,10.6,5.3,58.4,5.3,58.4C1521.9,869.6,1500.7,864.3,1500.7,864.3z M1665.4,851.1
			c0,0-2.7-39.9-2.7-45.2c0,0,10.6,37.2,13.3,37.2L1665.4,851.1z"/>
		<path class="st28" d="M1548.5,673c0,0-10.6,5.3-13.3-23.9l6.6,1.3c0,0-15.9-42.5,31.9-55.8c0,0,34.5-5.3,42.5,26.6
			c0,0,2.7,18.6,0,23.9l5.3-2.7c0,0,10.6,10.6-8,26.6c0,0-2.7,23.9-21.2,31.9c0,0-13.3,8-29.2,0
			C1563.1,700.9,1549.8,687.7,1548.5,673z"/>
		<path class="st29" d="M1543.2,614.7c0,0,10.6-20.8,31.9-20.8c0,0,23.9-5.2,37.2,15.6c0,0-23.9-5.2-34.5,10.4
			C1577.7,619.9,1556.5,604.3,1543.2,614.7z"/>
		<path class="st26" d="M1508.7,728.8c0,0,31.9-13.3,37.2-21.3h8c0,0-15.9,31.9,26.6,31.9c0,0,39.8,0,31.9-39.9h5.3
			c0,0,31.9,10.6,37.2,13.3h5.3c0,0-10.6,55.8,2.7,90.3l2.7,50.5l-5.3,5.3l-8,5.3l-5.3,2.7l-5.3,13.3h-45.2l-18.6,2.7
			c0,0-8,5.3-26.6,2.7c0,0-23.9-10.6-23.9-13.3c0,0-4-49.2-6.6-57.1l-2.7-5.3C1518,809.9,1525.9,751.4,1508.7,728.8z"/>
		<path class="st3" d="M1577.7,881.6l108.9-10.6c0,0,9.3-1.3,9.3,9.3c0,0,2.7,8-2.7,10.6h-41.2c0,0-8,5.3-5.3-5.3
			c0,0-22.6-10.6-30.5,0c0,0-2.7,10.6,2.7,15.9c0,0-21.2,2.7-26.6,0l-5.3-5.3l18.6-2.7c0,0,8,0,5.3-8L1577.7,881.6z"/>
		<path class="st30" d="M1693.2,1353.2l5.3-31.9h5.3l8-18.6h29.2c0,0,8,8,8,15.9l25.2,22.6v15.9c0,0-23.9,10.6-50.5,2.7l-5.3-5.3
			C1718.5,1354.5,1699.9,1357.2,1693.2,1353.2z"/>
		<path class="st30" d="M1568.4,1317.4c0,0,18.6-8,31.9-5.3c0,0,9.3,14.6,25.2,14.6l8,18.6c0,0,2.7,5.3-10.6,5.3h-15.9
			c0,0-2.7,10.6-23.9,10.6h-26.6c0,0-8,0-8-5.3v-18.6L1568.4,1317.4z"/>
	</g>
	<path class="st31" d="M2064.7,884.6l86-17.5l23.3,56.9c0,0-34.3,38.6-72.2,29.9c0,0-29.2-13.1-37.9-26.2l-21.9-35L2064.7,884.6z"/>
	<path class="st31" d="M2211.9,1117.9l-18.9-5.8l-4.4,26.2l11.7,4.4C2200.2,1142.7,2211.9,1135.4,2211.9,1117.9z"/>
	<g>
		<path class="st32" d="M2062.5,1357.7l14.6,45.2c0,0,5.8,26.2,0,29.2l-16.8,16.8l-1.5,10.2l2.9,4.4h42.3l2.9-7.3l4.4-11.7V1411
			c0,0-7.3-10.2-7.3-26.2v-33.5L2062.5,1357.7z"/>
		<path class="st33" d="M2058.8,1457.3c0,0-1.5-13.4,14.8-20.8l31.9-0.7c0,0,8.9,3,4.5,13.4l-3.1,7l-5.8,0.4c0,0,3-14.9-16.3-14.9
			C2084.8,1441.7,2059.6,1438.7,2058.8,1457.3z"/>
		<polygon class="st33" points="2058.8,1457.6 2106.9,1456.2 2104,1463.5 2061.8,1463.5 		"/>
	</g>
	<g>
		<path class="st32" d="M2158,1378.9l7.3,5.8c0,0,13.1,27.7,14.6,42.3l0.7,22.6c0,0-4.4,8.7,0,13.1l24.8,5.8l37.9,10.2
			c0,0,21.9-1.5,23.3-4.4c0,0,2.9-7.3-8.7-10.2l-7.3-2.9l-16-8.7c0,0-20.4-14.6-23.3-23.3l-2.9-42.3L2158,1378.9z"/>
		<path class="st34" d="M2203.9,1467.1c0,0,10.9-12.4,37.2-12.4l17.5,10.2c0,0-21.9-5.8-18.9,10.2c0,0,17.5,1.5,26.2-2.9l5.8,2.9
			l-1.5,4.4l-40.8,1.5h-4.4l-40.8-7.3l-4.4-11.7L2203.9,1467.1z"/>
	</g>
	<path class="st35" d="M2007.1,1084.3l5.8,87.5c0,0,21.9,42.3,23.3,74.4c0,0,12.4,118.8,16.8,136.3c0,0,53.9,7.3,67.1-10.2
		c0,0-7.3-70,0-91.9c0,0,2.9-20.4,2.9-35c0,0,27.7,62.7,30.6,93.3v54c0,0,72.9-2.9,75.8,0c0,0-5.8-70-13.1-100.6
		c0,0-11.7-40.8-7.3-72.9c0,0-1.5-77.3-8.7-105l-4.4-13.1L2007.1,1084.3z"/>
	<polygon class="st36" points="1953,1202.1 1977.9,1165.3 2001.3,1168.2 1992.5,1219.2 	"/>
	<polygon class="st36" points="1986.7,1169.6 1976.5,1219.2 2012.9,1232.3 2012.9,1165.3 	"/>
	<path class="st31" d="M1978.7,1116.4v7.3v7.3c0,0-7.3,19-7.3,32.1c0,0,0.7,3.6,6.6,2.2v8.7c0,0,2.9,4.4,7.3,1.5
		c0,0,4.4,4.4,8.7,1.5c0,0,7.3,2.9,7.3-2.9c0,0,8.7-4.4,10.2-8.7c1.5-4.4,1.5-20.4,1.5-20.4s0-8.7-2.9-16l-1.5-13.1v-8.7
		L1978.7,1116.4z"/>
	<path class="st37" d="M2039.9,891.9c0,0-40.8,20.4-45.2,39.4c0,0-9.5,31.4-13.8,72.2c0,0-11.7,65.6-5.8,93.3l-1.5,35
		c0,0,27.7-16,37.9-11.7l-2.2-28.4c0,0,54.7,60.5,149.4,43c0,0,32.1-16,39.4-17.5l14.6,2.9l8.7-32.1c0,0,8.7-7.3,8.7-20.4
		c0,0,5.8-26.2,0-52.5c0,0-7.3-27.7-5.8-48.1c0,0,3.8-42.7-22.5-73.3c0,0-31-15.2-45.6-15.2c0,0,1,53.5-4.8,56.5
		c0,0-14.6,23.3-51,17.5c0,0-42.3-17.5-55.4-56.9L2039.9,891.9z"/>
	<path class="st38" d="M2058.8,842.3c0,0-14.6,1.5-24.8,40.8c0,0-19-1.5-10.2,19l22.6,0.7c0,0,17.5,27.7,24.8,29.2
		c0,0,24.8-4.4,21.9,8.7c0,0-2.9,2.9-10.2,0c0,0,11.7,13.1,17.5,1.5c0,0,11.7-16-11.7-19l-1.5-7.3l10.2-2.9l-11.7-10.2L2058.8,842.3
		z"/>
	<path class="st39" d="M2049.4,816.8c0,0-11.7,14.6-5.8,32.1l2.2,8c0,0-1.5,24.8,8.7,35c0,0-0.3-0.4,2.9,4.4c0,0,3.3,6.1,13.1,11.7
		c0,0,36.4,3.6,42.3-32.8c0,0,7.3-2.9,7.3-16v-2.9l-8.7-6.6l-5.8-2.2C2105.5,847.4,2102.6,789.8,2049.4,816.8z"/>
	<path class="st38" d="M2042.8,816.1c2.9-6.6,23.3-21.9,23.3-21.9s39.4-13.1,64.1,21.9c0,0,13.8,10.9,13.8,18.2
		c0,0,17.5,2.9,18.9,17.5l14.9,33.2c0,0-4.3-8.7-14.9,1.8h-7.3c0,0,4.4,24.8-11.7,16c0,0,5.8,40.8-8.7,45.2c0,0-13.1,4.4-16-4.4
		c0,0-24.8,10.2-11.7-17.5l10.2-2.9c0,0-16-11.7,0-45.2l-5.1-2.9c0,0,8-7.3,6.6-19l-15.3-8.7l-19.7-30.6c0,0-14.6-11.7-35.7,1.5
		l-4.4,7.3C2044.3,825.5,2039.9,822.6,2042.8,816.1z"/>
	<path class="st40" d="M1899.2,1198.1l40.8-2.9l21.9,11.7h14.6c0,0,80.2,32.1,81.6,35c0,0-27,99.9-35.7,110.1l-1.5,20.4l-5.8,10.2
		l-2.2,6.6l-9.5-0.7c0,0-48.1-4.4-68.5-16c0,0-37.9-16-48.1-16c0,0-21.9-5.8-24.8-10.2l-10.2-11.7v-7.3l19-17.5l4.4-20.4l19-20.4
		L1899.2,1198.1z"/>
	<path class="st41" d="M1852.6,1335.1l27.7-11.7c0,0,52.5-1.5,90.4,36.5c0,0,21.1,21.1,25.5,18.2l14.6-2.9l4.4,7.3
		c0,0-5.8,11.7-23.3,7.3l-58.3-20.4c0,0-58.3-17.5-71.4-21.9L1852.6,1335.1z"/>
	<path class="st42" d="M2010,1091.6c0,0-1.5-52.5,2.9-58.3c0,0,13.1-21.9,18.9-35c5.8-13.1,2.9-39.4,1.5-45.2
		c0,0-14.6-39.4-23.3-39.4h-2.9c0,0-20.4,11.7-23.3,59.8l-5.8,48.1l-5.8,61.2c0,0-10.2,10.2,0,14.6l1.5,35c0,0,17.5-11.7,37.9-7.3"
		/>
	<path class="st42" d="M2201.8,893.6c0,0-11.8,44.9-8.9,63.9c0,0-4.4,35,0,67.1c0,0,2.9,26.2,7.3,45.2c0,0,7.3,39.4,0,48.1h13.1
		l10.2-29.2c0,0,16-35,8.7-70c0,0-8.7-35-5.8-49.6C2226.5,969.1,2231,911.1,2201.8,893.6z"/>
	<g>
		<path class="st43" d="M636.4,1411.1c0,0-7.6,13.8-19.9,19.9l-12.2,4.6c0,0-13.8-1.5-15.3,12.2s-1.5,9.2-1.5,9.2s37.5,3.8,78.8-3.8
			c0,0,38.2,1.5,41.3-4.6c0,0-1.5-3.1,0-10.7l-38.2-27.5L636.4,1411.1z"/>
		<path class="st43" d="M823,1435.6l3.1-16.8l18.4-10.7l13.8,3.1l10.7,24.5v24.5c0,0,0,6.1-18.4,9.2c0,0-32.1,1.5-36.7-3.1v-12.2
			L823,1435.6z"/>
		<path class="st44" d="M734.3,1024l24.5,6.1H771c0,0,16.8,15.3,58.1,0c0,0,21.4-13.8,22.9-16.8l31.4,0.8h24.5l9.2,93.3l-4.6,21.4
			l-1.5,12.2c0,0-4.6,59.7-9.2,88.7c0,0-4.6,47.4-3.1,59.7c0,0,1.5,50.5-6.1,102.5c0,0-4.6,26-12.2,30.6l-10.7,15.3
			c0,0-18.4-24.5-47.4-4.6c0,0-16.8-19.9-9.2-44.4c0,0,13.8-30.6,12.2-59.7c0,0-3.1-27.5,12.2-53.6c0,0-10.7-23-12.2-33.7
			c0,0-13.8-61.2-13.8-68.9c0-7.7-39.8,101-56.6,125.5c0,0-21.4,84.2-42.8,111.7c0,0-7.6,12.2-6.1,27.5c0,0-26,6.1-44.4-9.2
			c0,0-18.4-15.3-29.1-12.2l9.2-24.5l13.8-26l3.1-3.1c0,0,9.2-12.2,1.5-18.4c0,0-1.5-19.9,4.6-27.5l24.5-75c0,0,3.1-42.8,9.2-50.5
			c0,0,16.8-50.5,16.8-52c0-1.5,0-62.7,0-62.7L734.3,1024z"/>
		<g>
			<path class="st45" d="M743.5,1025.5l16.8-3.1c0,0,4,20.4,27.5,16.9c3.9-0.6,8.2-1.6,13.1-3.1c0,0,32.1-10.7,36.7-16.8l19.1-9.9
				v19.9l-15.3,10.7c0,0-30.6,13.8-36.7,13.8c0,0-35.2,4.6-56.6-3.1l-16.8-1.5v-10.7v-3.1L743.5,1025.5z"/>
			<path class="st46" d="M787.8,1039.3l2.6,15.9c0,0,25.3-0.7,31.3-6.8l-4.3-18.3C817.3,1030.2,806.2,1034.7,787.8,1039.3z"/>
		</g>
		<path class="st47" d="M802.3,781.5c0,0-1.5,15.3,13.8,23c0,0,0.9,3.2,1.3,7.1c0.4,4.1,0.2,8.9-2.1,12c0,0,7.6-1.5,6.1-10.7
			c0,0,3.1-10.7,13.8-15.3c0,0,19.9-13.8,21.4-24.5l1.5-3.1h4.6c0,0-1.5,6.1,10.7,19.9l3.1,6.1c0,0,0,13.8-6.1,23v13.8
			c0,0-9.2,24.5-12.2,42.8c0,0-9.2,45.9-10.7,61.2c0,0-4.6,65.8-1.5,78c0,0-36.7,33.7-70.4,24.5l-13.8-7.7c0,0-12.2,1.5-10.7-7.7
			l-19.9-45.9L751.1,871l27.5-42.8v-18.4l10.7-12.2l3.1-12.2L802.3,781.5z"/>
		<path class="st48" d="M800,773.1l3.1,9.2l-6.9,4.6c0,0-5.4,2.3-8.4,16.1l-12.2,42.8c0,0-12.2,49-6.1,61.2l-6.1,7.7
			c0,0-1.5,6.1,1.5,9.2v4.6c0,0-19.9,18.4-12.2,87.2l-1.5,15.3c0,0,6.1,65.8-26,75l-24.5-18.4l-13.8,12.2c0,0-7.6,4.6-4.6-23
			c0,0,1.5-110.2,12.2-143.8c0,0,3.1-47.4,13.8-65.8c0,0,15.3-45.9,35.2-55.1l-6.1-9.2c0,0,18.4,4.6,30.6-10.7L800,773.1z"/>
		<g>
			<path class="st49" d="M797,670.5l-16.8,32.1v10.7l-9.9,19.1l9.2,4.6v9.2c0,0-6.1,16.8,6.1,21.4c0,0,17.6,2.3,17.6,23.7
				c0,0,0,12.2,4.6,13.8c0,0,9.2,6.1,6.1,13.8l1.5,7.7c0,0,9.9-6.9,8.4-14.5c0,0,6.1-10.7,13.8-13.8c0,0,21.4-10.7,22.9-29.1
				l4.6-12.2l10.7-30.6l-10.7-35.2l-21.4-21.4h-9.2L797,670.5z"/>
			<path class="st50" d="M789.3,684.3c0,0,3.1-15.3,18.4-16.8c0,0,49.7-9.9,65,20.7c0,0,15.3,24.5,4.6,50.5c0,0-10.7,27.5-16.8,30.6
				l-3.1-10.7c0,0-6.1-7.7-4.6-15.3c0,0,12.2-9.2,10.7-16.8c0,0-6.1-10.7-15.3,0c0,0,0.8-3.8,0.8-0.8l-3.1,4.6l-2.3,0.8
				c0,0-16.8,1.5-16.8-9.2c0,0,1.5-12.2-1.5-18.4c0,0,13.8-7.7,7.6-19.9c0,0-10.7-3.1-21.4,0C811.5,683.5,790.1,686.6,789.3,684.3z"
				/>
		</g>
		<path class="st48" d="M860.5,766.2c0,0,26,12.2,27.5,24.5c0,0,23.7,20.7,26.8,22.2v4.6c0,0,36.7,26,32.1,97.9
			c0,0,9.2,76.5,6.1,105.6c0,0-1.5,30.6-4.6,35.2c0,0-1.5,36.7-15.3,55.1l-9.2,24.5h-29.1l-16.8-9.2l-44.4-21.4l-6.1-1.5l22.9-52
			c0,0-15.3-76.5,1.5-140.8c0,0,10.7-75,15.3-82.6c0,0,10.7-23,9.2-33.7C876.5,794.5,861.2,780.7,860.5,766.2z"/>
	</g>
</g>
</svg>
